<svg width="376" height="150" viewBox="0 0 376 150" fill="none" xmlns="http://www.w3.org/2000/svg">
<path d="M350.636 68.0996H339.636V79.0871H350.636V68.0996Z" fill="#FF4800"/>
<path d="M50.6804 79.048V56.698C50.6804 44.473 47.3768 42.3355 41.9333 42.3355C38.4795 42.3355 35.5888 43.8355 33.8243 46.5355C32.4353 48.748 32.0223 51.4105 32.0223 57.523V79.048H21.0227V33.373H31.1964V37.7605C35.2509 33.898 38.8924 32.323 44.0732 32.323C50.4177 32.323 55.3731 34.648 58.3764 38.923C60.8542 42.4855 61.6801 46.423 61.6801 54.598V79.0855H50.6804V79.048Z" fill="white"/>
<path d="M94.754 70.05C99.2965 70.05 102.037 68.8125 104.815 65.5125H116.791C113.75 74.925 104.252 80.1 94.9792 80.1C81.0138 80.1 70.2019 69.7125 70.2019 56.3625C70.2019 42.9 80.8637 32.2875 94.3035 32.2875C107.931 32.2875 117.917 42.675 117.917 56.85C117.917 58.5 117.842 59.475 117.504 61.05H82.065C83.454 66.6 88.2218 70.05 94.754 70.05ZM94.4912 42.3375C87.959 42.3375 83.4916 45.5625 81.7647 51.4125H107.105C105.754 45.5625 101.286 42.3375 94.4912 42.3375Z" fill="white"/>
<path d="M149.001 80.1375C135.636 80.1375 124.712 69.4125 124.712 56.2125C124.712 43.0875 135.599 32.2875 148.888 32.2875C162.666 32.2875 173.328 42.9375 173.328 56.55C173.365 69.4125 162.291 80.1375 149.001 80.1375ZM149.001 42.3375C141.831 42.3375 135.786 48.525 135.786 56.025C135.786 63.8625 141.643 70.05 149.076 70.05C156.359 70.05 162.291 63.8625 162.291 56.175C162.291 48.6375 156.359 42.3375 149.001 42.3375Z" fill="white"/>
<path d="M206.215 80.1375C200.584 80.1375 196.304 78.4875 192.175 74.775V94.3125H181.175V33.375H191.236V38.7375C194.803 34.6125 200.058 32.2875 206.253 32.2875C219.467 32.2875 229.04 42.2625 229.04 56.025C229.078 69.9 219.43 80.1375 206.215 80.1375ZM204.901 42.3375C197.318 42.3375 191.536 48.2625 191.536 56.1C191.536 64.0875 197.318 70.05 205.089 70.05C212.372 70.05 218.041 64.0125 218.041 56.2875C218.041 48.375 212.334 42.3375 204.901 42.3375Z" fill="white"/>
<path d="M237.336 79.0493V33.3744H248.336V79.0868H237.336V79.0493ZM237.449 26.7744V15.7869H248.449V26.7744H237.449Z" fill="white"/>
<path d="M306.713 79.0504V18.1129H317.713V79.0504H306.713Z" fill="white"/>
<path d="M300.03 79.0478L284 56.0228L297.703 33.3728H285.314L277.581 46.7603L268.27 33.3728H255.807L270.786 54.9353L254.455 79.0478H267.67L277.205 64.1978L287.567 79.0478H300.03Z" fill="white"/>
<path d="M27.9305 119.813H30.2581L36.565 134.25H33.8996L32.4355 130.8H25.678L24.2139 134.25H21.6235L27.9305 119.813ZM31.5345 128.588L29.0567 122.85L26.579 128.588H31.5345Z" fill="white"/>
<path d="M48.6541 132.189L50.1557 130.389C51.5447 131.589 52.9338 132.264 54.6982 132.264C56.275 132.264 57.251 131.514 57.251 130.464V130.426C57.251 129.414 56.6879 128.851 54.0225 128.251C50.9816 127.501 49.2547 126.601 49.2547 123.976V123.939C49.2547 121.464 51.3195 119.776 54.1726 119.776C56.275 119.776 57.9268 120.414 59.3909 121.576L58.0394 123.489C56.763 122.514 55.449 122.026 54.1351 122.026C52.671 122.026 51.8075 122.776 51.8075 123.714V123.751C51.8075 124.876 52.4457 125.364 55.2238 126.001C58.2646 126.751 59.8038 127.839 59.8038 130.201V130.239C59.8038 132.939 57.7015 134.514 54.6607 134.514C52.4457 134.476 50.381 133.726 48.6541 132.189Z" fill="white"/>
<path d="M64.946 119.924H67.649L72.0038 126.712L76.3587 119.924H79.0616V134.249H76.5464V123.974L72.0038 130.724H71.9288L67.4238 124.012V134.249H64.946V119.924Z" fill="white"/>
<path d="M85.1062 119.924H87.6215V134.249H85.1062V119.924Z" fill="white"/>
<path d="M93.6655 119.924H96.1808V131.962H103.727V134.249H93.6655V119.924Z" fill="white"/>
<path d="M108.57 119.924H119.231V122.174H111.122V125.887H118.33V128.137H111.122V131.999H119.344V134.249H108.607V119.924H108.57Z" fill="white"/>
<path d="M132.22 127.126V127.088C132.22 123.076 135.299 119.663 139.616 119.663C142.131 119.663 143.67 120.376 145.134 121.613L143.52 123.526C142.431 122.588 141.343 121.988 139.503 121.988C136.838 121.988 134.848 124.313 134.848 127.051V127.088C134.848 130.051 136.8 132.226 139.729 132.226C141.08 132.226 142.319 131.813 143.182 131.138V128.438H139.503V126.263H145.66V132.301C144.233 133.501 142.206 134.551 139.653 134.551C135.186 134.513 132.22 131.326 132.22 127.126Z" fill="white"/>
<path d="M151.142 119.924H157.524C159.326 119.924 160.752 120.449 161.653 121.349C162.404 122.137 162.854 123.187 162.854 124.462V124.499C162.854 126.862 161.428 128.287 159.438 128.849L163.305 134.287H160.302L156.773 129.299H153.619V134.287H151.104V119.924H151.142ZM157.373 127.049C159.175 127.049 160.339 126.112 160.339 124.649V124.612C160.339 123.074 159.213 122.249 157.373 122.249H153.694V127.049H157.373Z" fill="white"/>
<path d="M167.547 127.126V127.088C167.547 123.038 170.663 119.663 175.093 119.663C179.485 119.663 182.564 123.001 182.564 127.051V127.088C182.564 131.138 179.448 134.513 175.018 134.513C170.588 134.513 167.547 131.176 167.547 127.126ZM179.936 127.126V127.088C179.936 124.313 177.909 121.988 175.055 121.988C172.202 121.988 170.213 124.276 170.213 127.051V127.088C170.213 129.863 172.24 132.188 175.093 132.188C177.946 132.188 179.936 129.938 179.936 127.126Z" fill="white"/>
<path d="M187.594 128.174V119.924H190.11V128.062C190.11 130.724 191.499 132.149 193.751 132.149C196.004 132.149 197.355 130.799 197.355 128.174V119.924H199.87V128.062C199.87 132.337 197.468 134.512 193.713 134.512C189.997 134.512 187.594 132.337 187.594 128.174Z" fill="white"/>
<path d="M205.576 119.924H211.245C214.624 119.924 216.689 121.837 216.689 124.724V124.762C216.689 127.987 214.098 129.674 210.945 129.674H208.092V134.287H205.576V119.924ZM211.02 127.387C212.935 127.387 214.136 126.337 214.136 124.837V124.799C214.136 123.112 212.935 122.249 211.02 122.249H208.092V127.424H211.02V127.387Z" fill="white"/>
<path d="M229.19 127.126V127.088C229.19 123.001 232.231 119.663 236.585 119.663C239.213 119.663 240.828 120.601 242.217 121.913L240.602 123.788C239.439 122.738 238.237 121.988 236.585 121.988C233.845 121.988 231.855 124.238 231.855 127.051V127.088C231.855 129.901 233.845 132.188 236.585 132.188C238.35 132.188 239.476 131.476 240.715 130.351L242.329 132.001C240.828 133.576 239.176 134.551 236.51 134.551C232.306 134.513 229.19 131.251 229.19 127.126Z" fill="white"/>
<path d="M246.121 127.126V127.088C246.121 123.038 249.237 119.663 253.667 119.663C258.059 119.663 261.138 123.001 261.138 127.051V127.088C261.138 131.138 258.022 134.513 253.592 134.513C249.2 134.513 246.121 131.176 246.121 127.126ZM258.51 127.126V127.088C258.51 124.313 256.483 121.988 253.629 121.988C250.776 121.988 248.787 124.276 248.787 127.051V127.088C248.787 129.863 250.814 132.188 253.667 132.188C256.52 132.188 258.51 129.938 258.51 127.126Z" fill="white"/>
<path d="M266.394 119.924H269.097L273.452 126.712L277.806 119.924H280.509V134.249H277.994V123.974L273.452 130.724H273.376L268.872 124.012V134.249H266.394V119.924Z" fill="white"/>
<path d="M286.403 119.924H292.072C295.45 119.924 297.515 121.837 297.515 124.724V124.762C297.515 127.987 294.925 129.674 291.771 129.674H288.918V134.287H286.403V119.924ZM291.884 127.387C293.799 127.387 295 126.337 295 124.837V124.799C295 123.112 293.799 122.249 291.884 122.249H288.956V127.424H291.884V127.387Z" fill="white"/>
<path d="M305.962 119.812H308.29L314.597 134.249H311.969L310.505 130.799H303.71L302.246 134.249H299.656L305.962 119.812ZM309.566 128.587L307.089 122.849L304.611 128.587H309.566Z" fill="white"/>
<path d="M319.289 119.924H321.617L329.313 129.824V119.924H331.79V134.249H329.688L321.767 124.049V134.249H319.289V119.924Z" fill="white"/>
<path d="M341.927 128.624L336.221 119.924H339.224L343.241 126.262L347.295 119.924H350.186L344.48 128.549V134.249H341.927V128.624Z" fill="white"/>
</svg>
