<svg width="66" height="24" viewBox="0 0 66 24" fill="none" xmlns="http://www.w3.org/2000/svg">
<g clip-path="url(#clip0_1100_2699)">
<path d="M65.9272 10.6201H63.7273V12.8176H65.9272V10.6201Z" fill="#FF4800"/>
<path d="M5.93619 12.8098V8.33984C5.93619 5.89484 5.27546 5.46734 4.18676 5.46734C3.49599 5.46734 2.91785 5.76734 2.56497 6.30734C2.28716 6.74984 2.20457 7.28234 2.20457 8.50484V12.8098H0.00463867V3.67484H2.03938V4.55234C2.85028 3.77984 3.57858 3.46484 4.61473 3.46484C5.88363 3.46484 6.87472 3.92984 7.47539 4.78484C7.97093 5.49734 8.13612 6.28484 8.13612 7.91984V12.8173H5.93619V12.8098Z" fill="white"/>
<path d="M14.751 11.0095C15.6595 11.0095 16.2076 10.762 16.7632 10.102H19.1584C18.5502 11.9845 16.6506 13.0195 14.796 13.0195C12.003 13.0195 9.84058 10.942 9.84058 8.27203C9.84058 5.57953 11.9729 3.45703 14.6609 3.45703C17.3864 3.45703 19.3836 5.53453 19.3836 8.36953C19.3836 8.69953 19.3686 8.89453 19.301 9.20953H12.2132C12.491 10.3195 13.4446 11.0095 14.751 11.0095ZM14.6984 5.46703C13.392 5.46703 12.4985 6.11203 12.1531 7.28203H17.2212C16.9509 6.11203 16.0574 5.46703 14.6984 5.46703Z" fill="white"/>
<path d="M25.6003 13.027C22.9273 13.027 20.7424 10.882 20.7424 8.24203C20.7424 5.61703 22.9198 3.45703 25.5778 3.45703C28.3333 3.45703 30.4657 5.58703 30.4657 8.30953C30.4732 10.882 28.2582 13.027 25.6003 13.027ZM25.6003 5.46703C24.1662 5.46703 22.9574 6.70453 22.9574 8.20453C22.9574 9.77203 24.1287 11.0095 25.6153 11.0095C27.0719 11.0095 28.2582 9.77203 28.2582 8.23453C28.2582 6.72703 27.0719 5.46703 25.6003 5.46703Z" fill="white"/>
<path d="M37.0432 13.027C35.9169 13.027 35.061 12.697 34.2351 11.9545V15.862H32.0352V3.67453H34.0474V4.74703C34.7607 3.92203 35.8118 3.45703 37.0507 3.45703C39.6936 3.45703 41.6082 5.45203 41.6082 8.20453C41.6157 10.9795 39.6861 13.027 37.0432 13.027ZM36.7804 5.46703C35.2637 5.46703 34.1074 6.65203 34.1074 8.21953C34.1074 9.81703 35.2637 11.0095 36.8179 11.0095C38.2745 11.0095 39.4083 9.80203 39.4083 8.25703C39.4083 6.67453 38.267 5.46703 36.7804 5.46703Z" fill="white"/>
<path d="M43.2673 12.8097V3.67473H45.4673V12.8172H43.2673V12.8097ZM43.2899 2.35473V0.157227H45.4898V2.35473H43.2899Z" fill="white"/>
<path d="M57.1428 12.8096V0.62207H59.3427V12.8096H57.1428Z" fill="white"/>
<path d="M55.8062 12.8098L52.6002 8.2048L55.3407 3.6748H52.863L51.3163 6.3523L49.4542 3.6748H46.9615L49.9573 7.98731L46.6912 12.8098H49.3341L51.2412 9.83981L53.3135 12.8098H55.8062Z" fill="white"/>
<path d="M1.38615 20.9629H1.85166L3.11305 23.8504H2.57997L2.28714 23.1604H0.935651L0.642828 23.8504H0.124756L1.38615 20.9629ZM2.10694 22.7179L1.6114 21.5704L1.11585 22.7179H2.10694Z" fill="white"/>
<path d="M5.53076 23.4376L5.83109 23.0776C6.1089 23.3176 6.3867 23.4526 6.73959 23.4526C7.05494 23.4526 7.25016 23.3026 7.25016 23.0926V23.0851C7.25016 22.8826 7.13753 22.7701 6.60444 22.6501C5.99627 22.5001 5.65089 22.3201 5.65089 21.7951V21.7876C5.65089 21.2926 6.06385 20.9551 6.63448 20.9551C7.05494 20.9551 7.38531 21.0826 7.67813 21.3151L7.40783 21.6976C7.15255 21.5026 6.88976 21.4051 6.62697 21.4051C6.33415 21.4051 6.16146 21.5551 6.16146 21.7426V21.7501C6.16146 21.9751 6.2891 22.0726 6.84471 22.2001C7.45288 22.3501 7.76072 22.5676 7.76072 23.0401V23.0476C7.76072 23.5876 7.34026 23.9026 6.73209 23.9026C6.2891 23.8951 5.87614 23.7451 5.53076 23.4376Z" fill="white"/>
<path d="M8.78931 20.9854H9.3299L10.2009 22.3429L11.0718 20.9854H11.6124V23.8504H11.1094V21.7954L10.2009 23.1454H10.1859L9.28485 21.8029V23.8504H8.78931V20.9854Z" fill="white"/>
<path d="M12.8213 20.9854H13.3243V23.8504H12.8213V20.9854Z" fill="white"/>
<path d="M14.5332 20.9854H15.0363V23.3929H16.5454V23.8504H14.5332V20.9854Z" fill="white"/>
<path d="M17.5139 20.9854H19.6463V21.4354H18.0245V22.1779H19.4661V22.6279H18.0245V23.4004H19.6688V23.8504H17.5214V20.9854H17.5139Z" fill="white"/>
<path d="M22.2441 22.4251V22.4176C22.2441 21.6151 22.8598 20.9326 23.7233 20.9326C24.2263 20.9326 24.5342 21.0751 24.827 21.3226L24.5041 21.7051C24.2864 21.5176 24.0687 21.3976 23.7007 21.3976C23.1677 21.3976 22.7697 21.8626 22.7697 22.4101V22.4176C22.7697 23.0101 23.1602 23.4451 23.7458 23.4451C24.0161 23.4451 24.2639 23.3626 24.4366 23.2276V22.6876H23.7007V22.2526H24.9321V23.4601C24.6468 23.7001 24.2413 23.9101 23.7308 23.9101C22.8373 23.9026 22.2441 23.2651 22.2441 22.4251Z" fill="white"/>
<path d="M26.0283 20.9854H27.3047C27.6651 20.9854 27.9504 21.0904 28.1306 21.2704C28.2807 21.4279 28.3708 21.6379 28.3708 21.8929V21.9004C28.3708 22.3729 28.0855 22.6579 27.6876 22.7704L28.4609 23.8579H27.8603L27.1545 22.8604H26.5238V23.8579H26.0208V20.9854H26.0283ZM27.2746 22.4104C27.635 22.4104 27.8678 22.2229 27.8678 21.9304V21.9229C27.8678 21.6154 27.6425 21.4504 27.2746 21.4504H26.5388V22.4104H27.2746Z" fill="white"/>
<path d="M29.3096 22.4251V22.4176C29.3096 21.6076 29.9328 20.9326 30.8187 20.9326C31.6972 20.9326 32.3129 21.6001 32.3129 22.4101V22.4176C32.3129 23.2276 31.6897 23.9026 30.8037 23.9026C29.9177 23.9026 29.3096 23.2351 29.3096 22.4251ZM31.7873 22.4251V22.4176C31.7873 21.8626 31.3819 21.3976 30.8112 21.3976C30.2406 21.3976 29.8427 21.8551 29.8427 22.4101V22.4176C29.8427 22.9726 30.2481 23.4376 30.8187 23.4376C31.3894 23.4376 31.7873 22.9876 31.7873 22.4251Z" fill="white"/>
<path d="M33.3188 22.6354V20.9854H33.8219V22.6129C33.8219 23.1454 34.0997 23.4304 34.5502 23.4304C35.0007 23.4304 35.271 23.1604 35.271 22.6354V20.9854H35.7741V22.6129C35.7741 23.4679 35.2935 23.9029 34.5427 23.9029C33.7994 23.9029 33.3188 23.4679 33.3188 22.6354Z" fill="white"/>
<path d="M36.9153 20.9854H38.049C38.7248 20.9854 39.1377 21.3679 39.1377 21.9454V21.9529C39.1377 22.5979 38.6197 22.9354 37.989 22.9354H37.4183V23.8579H36.9153V20.9854ZM38.004 22.4779C38.3869 22.4779 38.6272 22.2679 38.6272 21.9679V21.9604C38.6272 21.6229 38.3869 21.4504 38.004 21.4504H37.4183V22.4854H38.004V22.4779Z" fill="white"/>
<path d="M41.6379 22.4251V22.4176C41.6379 21.6001 42.2461 20.9326 43.1171 20.9326C43.6427 20.9326 43.9655 21.1201 44.2433 21.3826L43.9205 21.7576C43.6877 21.5476 43.4474 21.3976 43.1171 21.3976C42.569 21.3976 42.171 21.8476 42.171 22.4101V22.4176C42.171 22.9801 42.569 23.4376 43.1171 23.4376C43.47 23.4376 43.6952 23.2951 43.943 23.0701L44.2658 23.4001C43.9655 23.7151 43.6351 23.9101 43.1021 23.9101C42.2611 23.9026 41.6379 23.2501 41.6379 22.4251Z" fill="white"/>
<path d="M45.0242 22.4251V22.4176C45.0242 21.6076 45.6474 20.9326 46.5333 20.9326C47.4118 20.9326 48.0275 21.6001 48.0275 22.4101V22.4176C48.0275 23.2276 47.4043 23.9026 46.5183 23.9026C45.6399 23.9026 45.0242 23.2351 45.0242 22.4251ZM47.5019 22.4251V22.4176C47.5019 21.8626 47.0965 21.3976 46.5258 21.3976C45.9552 21.3976 45.5573 21.8551 45.5573 22.4101V22.4176C45.5573 22.9726 45.9627 23.4376 46.5333 23.4376C47.104 23.4376 47.5019 22.9876 47.5019 22.4251Z" fill="white"/>
<path d="M49.0789 20.9854H49.6195L50.4904 22.3429L51.3614 20.9854H51.902V23.8504H51.3989V21.7954L50.4904 23.1454H50.4754L49.5744 21.8029V23.8504H49.0789V20.9854Z" fill="white"/>
<path d="M53.0806 20.9854H54.2143C54.8901 20.9854 55.303 21.3679 55.303 21.9454V21.9529C55.303 22.5979 54.7849 22.9354 54.1542 22.9354H53.5836V23.8579H53.0806V20.9854ZM54.1768 22.4779C54.5597 22.4779 54.8 22.2679 54.8 21.9679V21.9604C54.8 21.6229 54.5597 21.4504 54.1768 21.4504H53.5911V22.4854H54.1768V22.4779Z" fill="white"/>
<path d="M56.9926 20.9619H57.4581L58.7195 23.8494H58.1939L57.9011 23.1594H56.5421L56.2493 23.8494H55.7312L56.9926 20.9619ZM57.7134 22.7169L57.2178 21.5694L56.7223 22.7169H57.7134Z" fill="white"/>
<path d="M59.658 20.9854H60.1235L61.6627 22.9654V20.9854H62.1582V23.8504H61.7378L60.1535 21.8104V23.8504H59.658V20.9854Z" fill="white"/>
<path d="M64.1855 22.7254L63.0442 20.9854H63.6449L64.4482 22.2529L65.2591 20.9854H65.8373L64.696 22.7104V23.8504H64.1855V22.7254Z" fill="white"/>
</g>
<defs>
<clipPath id="clip0_1100_2699">
<rect width="66" height="24" fill="white"/>
</clipPath>
</defs>
</svg>
